# xmcd CD database file
#
# Track frame offsets:
#	150
#	19620
#	39098
#	56622
#	72885
#	91862
#	107175
#	124939
#	139825
#	154290
#
# Disc length: 2204 seconds
#
# Revision: 2
# Processed by: cddbd v1.5.1PL2 Copyright (c) Steve Scherf et al.
# Submitted via: jetAudio 5
#
DISCID=80089a0a
DTITLE=екемг тсакицопоукоу - 5 тяацоудиа циа ема йакойаияи
DYEAR=2002
DGENRE=
TTITLE0=викиес сиыпес
TTITLE1=дем то анифеис
TTITLE2=де лас суцвыяы
TTITLE3=деине лоу поиос л╒цапаеи
TTITLE4=ста суммежа
TTITLE5=ека паяе лоу тг купг
TTITLE6=жтеяыто лоу тяацоудайи
TTITLE7=есема де соу анифе ацапг
TTITLE8=то киламайи
TTITLE9=ока та дусйока
EXTD=
EXTT0=
EXTT1=
EXTT2=
EXTT3=
EXTT4=
EXTT5=
EXTT6=
EXTT7=
EXTT8=
EXTT9=
PLAYORDER=
